<?xml version="1.0" encoding="UTF-8"?>
<svg xmlns="http://www.w3.org/2000/svg"
     xmlns:xlink="http://www.w3.org/1999/xlink"
     xmlns:gadfly="http://www.gadflyjl.org/ns"
     version="1.2"
     width="127mm" height="101.6mm" viewBox="0 0 127 101.6"
     stroke="none"
     fill="#000000"
     stroke-width="0.3"
     font-size="3.88"
>
<defs>
  <marker id="arrow" markerWidth="15" markerHeight="7" refX="5" refY="3.5" orient="auto" markerUnits="strokeWidth">
    <path d="M0,0 L15,3.5 L0,7 z" stroke="context-stroke" fill="context-stroke"/>
  </marker>
</defs>
<g class="plotroot xscalable yscalable" id="img-d21cddab-1">
  <g font-size="3.88" font-family="'PT Sans','Helvetica Neue','Helvetica',sans-serif" fill="#564A55" stroke="#000000" stroke-opacity="0.000" id="img-d21cddab-2">
    <g transform="translate(69.7,89.99)">
      <g class="primitive">
        <text text-anchor="middle" dy="0.6em">Time</text>
      </g>
    </g>
  </g>
  <g class="guide xlabels" font-size="2.82" font-family="'PT Sans Caption','Helvetica Neue','Helvetica',sans-serif" fill="#6C606B" id="img-d21cddab-3">
    <g transform="translate(-3.9,83.32)">
      <g class="primitive">
        <text text-anchor="middle" dy="0.6em">2005</text>
      </g>
    </g>
    <g transform="translate(34.8,83.32)">
      <g class="primitive">
        <text text-anchor="middle" dy="0.6em">2010</text>
      </g>
    </g>
    <g transform="translate(73.5,83.32)">
      <g class="primitive">
        <text text-anchor="middle" dy="0.6em">2015</text>
      </g>
    </g>
    <g transform="translate(112.21,83.32)">
      <g class="primitive">
        <text text-anchor="middle" dy="0.6em">2020</text>
      </g>
    </g>
    <g transform="translate(150.93,83.32)">
      <g class="primitive">
        <text text-anchor="middle" dy="0.6em">2025</text>
      </g>
    </g>
  </g>
  <g clip-path="url(#img-d21cddab-4)">
    <g id="img-d21cddab-5">
      <g pointer-events="visible" stroke-width="0.3" fill="#000000" fill-opacity="0.000" stroke="#000000" stroke-opacity="0.000" class="guide background" id="img-d21cddab-6">
        <g transform="translate(69.7,43.66)" id="img-d21cddab-7">
          <path d="M-52.3,-38.66 L52.3,-38.66 52.3,38.66 -52.3,38.66  z" class="primitive"/>
        </g>
      </g>
      <g class="guide ygridlines xfixed" stroke-dasharray="0.5,0.5" stroke-width="0.2" stroke="#D0D0E0" id="img-d21cddab-8">
        <g transform="translate(69.7,80.32)" id="img-d21cddab-9">
          <path fill="none" d="M-52.3,0 L52.3,0 " class="primitive"/>
        </g>
        <g transform="translate(69.7,71.15)" id="img-d21cddab-10">
          <path fill="none" d="M-52.3,0 L52.3,0 " class="primitive"/>
        </g>
        <g transform="translate(69.7,61.99)" id="img-d21cddab-11">
          <path fill="none" d="M-52.3,0 L52.3,0 " class="primitive"/>
        </g>
        <g transform="translate(69.7,52.82)" id="img-d21cddab-12">
          <path fill="none" d="M-52.3,0 L52.3,0 " class="primitive"/>
        </g>
        <g transform="translate(69.7,43.66)" id="img-d21cddab-13">
          <path fill="none" d="M-52.3,0 L52.3,0 " class="primitive"/>
        </g>
        <g transform="translate(69.7,34.49)" id="img-d21cddab-14">
          <path fill="none" d="M-52.3,0 L52.3,0 " class="primitive"/>
        </g>
        <g transform="translate(69.7,25.33)" id="img-d21cddab-15">
          <path fill="none" d="M-52.3,0 L52.3,0 " class="primitive"/>
        </g>
        <g transform="translate(69.7,16.16)" id="img-d21cddab-16">
          <path fill="none" d="M-52.3,0 L52.3,0 " class="primitive"/>
        </g>
        <g transform="translate(69.7,7)" id="img-d21cddab-17">
          <path fill="none" d="M-52.3,0 L52.3,0 " class="primitive"/>
        </g>
      </g>
      <g class="guide xgridlines yfixed" stroke-dasharray="0.5,0.5" stroke-width="0.2" stroke="#D0D0E0" id="img-d21cddab-18">
        <g transform="translate(-3.9,43.66)" id="img-d21cddab-19">
          <path fill="none" d="M0,-38.66 L0,38.66 " class="primitive"/>
        </g>
        <g transform="translate(34.8,43.66)" id="img-d21cddab-20">
          <path fill="none" d="M0,-38.66 L0,38.66 " class="primitive"/>
        </g>
        <g transform="translate(73.5,43.66)" id="img-d21cddab-21">
          <path fill="none" d="M0,-38.66 L0,38.66 " class="primitive"/>
        </g>
        <g transform="translate(112.21,43.66)" id="img-d21cddab-22">
          <path fill="none" d="M0,-38.66 L0,38.66 " class="primitive"/>
        </g>
        <g transform="translate(150.93,43.66)" id="img-d21cddab-23">
          <path fill="none" d="M0,-38.66 L0,38.66 " class="primitive"/>
        </g>
      </g>
      <g class="plotpanel" id="img-d21cddab-24">
        <metadata>
          <boundingbox value="17.398333333333326mm 5.0mm 104.60166666666666mm 77.315mm"/>
          <unitbox value="2007-10-03 5.2182363772761375 4935 days -8.436472754552275"/>
        </metadata>
        <g class="yfixed" id="img-d21cddab-25">
          <g stroke-dasharray="none" stroke-width="10.5" stroke="#808080" id="img-d21cddab-26">
            <g transform="translate(24.48,43.66)" id="img-d21cddab-27">
              <path fill="none" d="M0,-38.66 L0,38.66 " class="primitive"/>
            </g>
          </g>
        </g>
        <g stroke-width="0.3" fill="#000000" fill-opacity="0.000" class="geometry" id="img-d21cddab-28">
          <g class="color_RGB{N0f8}(0.0,0.749,1.0)" stroke-dasharray="none" stroke="#00BFFF" id="img-d21cddab-29">
            <g transform="translate(67.68,27.75)" id="img-d21cddab-30">
              <path fill="none" d="M-48.38,-5.18 L-46.45,-5.18 -44.52,-3.34 -42.57,-0.59 -40.62,4.91 -38.71,9.49 -36.78,11.32 -34.83,11.32 -32.88,10.4 -30.98,8.57 -29.05,8.57 -27.1,7.65 -25.15,8.57 -23.24,8.57 -21.31,7.65 -19.36,8.57 -17.41,5.82 -15.48,5.82 -13.55,5.82 -11.6,6.74 -9.65,5.82 -7.75,4.91 -5.82,5.82 -3.87,3.07 -1.92,6.74 -0.01,4.91 1.92,0.32 3.87,0.32 5.82,-4.26 7.73,1.24 9.66,2.16 11.61,2.16 13.56,2.16 15.49,-4.26 17.41,-2.43 19.36,-2.43 21.31,-3.34 23.22,-2.43 25.15,-5.18 27.1,-6.09 29.05,-9.76 30.96,-9.76 32.89,-11.59 34.84,-13.42 36.79,-10.67 38.69,-11.59 40.62,-11.59 42.57,-11.59 44.52,-15.26 46.45,-11.59 48.38,-7.92 " class="primitive"/>
            </g>
          </g>
        </g>
        <g class="yfixed" id="img-d21cddab-31">
          <g stroke-dasharray="1,1" stroke-width="0.3" stroke="#000000" id="img-d21cddab-32">
            <g transform="translate(113.01,43.66)" id="img-d21cddab-33">
              <path fill="none" d="M0,-38.66 L0,38.66 " class="primitive"/>
            </g>
          </g>
        </g>
        <g stroke-width="0.3" fill="#000000" fill-opacity="0.000" class="geometry" id="img-d21cddab-34">
          <g class="color_RGB{N0f8}(1.0,0.0,0.0)" stroke-dasharray="none" stroke="#FF0000" id="img-d21cddab-35">
            <g transform="translate(68.98,55.75)" id="img-d21cddab-36">
              <path fill="none" d="M-49.67,-1.09 L-49.01,-0.18 -48.4,-2.01 -47.74,-2.93 -47.11,-3.84 -46.45,-3.84 -45.81,-3.84 -45.16,-5.68 -44.5,-2.93 -43.86,-4.76 -43.21,-2.01 -42.57,-1.09 -41.91,1.66 -41.26,-1.09 -40.66,1.66 -40,-1.09 -39.37,0.74 -38.71,0.74 -38.08,2.57 -37.42,3.49 -36.76,5.32 -36.13,6.24 -35.47,5.32 -34.83,8.07 -34.18,5.32 -33.52,5.32 -32.93,3.49 -32.27,1.66 -31.63,4.4 -30.98,7.15 -30.34,5.32 -29.68,3.49 -29.03,1.66 -28.39,2.57 -27.73,0.74 -27.1,-0.18 -26.44,2.57 -25.78,4.4 -25.19,3.49 -24.53,6.24 -23.9,4.4 -23.24,2.57 -22.6,2.57 -21.95,2.57 -21.29,0.74 -20.65,-0.18 -20,1.66 -19.36,-0.18 -18.7,1.66 -18.05,-0.18 -17.43,0.74 -16.77,1.66 -16.14,0.74 -15.48,-1.09 -14.85,-0.18 -14.19,2.57 -13.53,2.57 -12.9,-0.18 -12.24,1.66 -11.6,-0.18 -10.95,-2.93 -10.29,0.74 -9.69,1.66 -9.04,-0.18 -8.4,-0.18 -7.74,0.74 -7.11,0.74 -6.45,-1.09 -5.79,0.74 -5.16,6.24 -4.5,2.57 -3.87,4.4 -3.21,4.4 -2.55,1.66 -1.96,-1.09 -1.3,2.57 -0.67,1.66 -0.01,2.57 0.63,0.74 1.28,0.74 1.94,0.74 2.58,-3.84 3.23,-2.01 3.87,-2.01 4.53,-2.93 5.18,-1.09 5.78,1.66 6.44,-2.93 7.07,-2.93 7.73,-2.01 8.36,-0.18 9.02,-0.18 9.68,0.74 10.31,0.74 10.97,0.74 11.61,-2.01 12.26,-1.09 12.92,-3.84 13.54,-5.68 14.19,-2.93 14.83,-1.09 15.49,-2.93 16.12,-3.84 16.78,-5.68 17.44,-7.51 18.07,-5.68 18.73,-4.76 19.36,-2.93 20.02,-3.84 20.68,-2.93 21.27,-2.93 21.93,-4.76 22.57,-3.84 23.22,-3.84 23.86,-3.84 24.52,-2.93 25.17,-4.76 25.81,-2.01 26.47,-2.93 27.1,-2.93 27.76,-2.01 28.42,-4.76 29.01,-2.93 29.67,-2.01 30.3,-3.84 30.96,-4.76 31.59,-3.84 32.25,-1.09 32.91,-0.18 33.55,-4.76 34.2,-4.76 34.84,-5.68 35.5,-7.51 36.15,-3.84 36.75,-3.84 37.4,-2.01 38.04,-2.93 38.7,-2.93 39.33,-3.84 39.99,-7.51 40.65,-6.59 41.28,-6.59 41.94,-5.68 42.57,-4.76 43.23,-4.76 43.89,-5.68 44.5,-0.18 45.16,20.9 45.8,16.32 46.45,10.82 47.09,11.74 47.75,10.82 48.4,13.57 49.04,11.74 49.7,12.65 " class="primitive"/>
            </g>
          </g>
        </g>
      </g>
      <g class="guide colorkey" id="img-d21cddab-37">
        <g fill="#4C404B" font-size="2.82" font-family="'PT Sans','Helvetica Neue','Helvetica',sans-serif" id="img-d21cddab-38">
          <g transform="translate(42.95,73.78)" id="img-d21cddab-39">
            <g class="primitive">
              <text dy="0.35em">Labor force participation rate (2020-11-01: -1.7)</text>
            </g>
          </g>
          <g transform="translate(42.95,77.41)" id="img-d21cddab-40">
            <g class="primitive">
              <text dy="0.35em">Employment cost - wage and salary (2020-07-01: 3.6)</text>
            </g>
          </g>
        </g>
        <g stroke-width="0.3" id="img-d21cddab-41">
          <g stroke="#FFFFFF" fill-opacity="1" fill="#00BFFF" id="img-d21cddab-42">
            <g transform="translate(40.13,77.41)" id="img-d21cddab-43">
              <circle cx="0" cy="0" r="0.9" class="primitive"/>
            </g>
          </g>
          <g stroke="#FFFFFF" fill-opacity="1" fill="#FF0000" id="img-d21cddab-44">
            <g transform="translate(40.13,73.78)" id="img-d21cddab-45">
              <circle cx="0" cy="0" r="0.9" class="primitive"/>
            </g>
          </g>
        </g>
        <g fill="#362A35" font-size="3.88" font-family="'PT Sans','Helvetica Neue','Helvetica',sans-serif" stroke="#000000" stroke-opacity="0.000" id="img-d21cddab-46">
          <g transform="translate(39.32,70.47)" id="img-d21cddab-47">
            <g class="primitive">
              <text dy="-0em">Labor market</text>
            </g>
          </g>
        </g>
      </g>
    </g>
  </g>
  <g class="guide ylabels" font-size="2.82" font-family="'PT Sans Caption','Helvetica Neue','Helvetica',sans-serif" fill="#6C606B" id="img-d21cddab-48">
    <g transform="translate(16.4,80.32)" id="img-d21cddab-49">
      <g class="primitive">
        <text text-anchor="end" dy="0.35em">-3</text>
      </g>
    </g>
    <g transform="translate(16.4,71.15)" id="img-d21cddab-50">
      <g class="primitive">
        <text text-anchor="end" dy="0.35em">-2</text>
      </g>
    </g>
    <g transform="translate(16.4,61.99)" id="img-d21cddab-51">
      <g class="primitive">
        <text text-anchor="end" dy="0.35em">-1</text>
      </g>
    </g>
    <g transform="translate(16.4,52.82)" id="img-d21cddab-52">
      <g class="primitive">
        <text text-anchor="end" dy="0.35em">0</text>
      </g>
    </g>
    <g transform="translate(16.4,43.66)" id="img-d21cddab-53">
      <g class="primitive">
        <text text-anchor="end" dy="0.35em">1</text>
      </g>
    </g>
    <g transform="translate(16.4,34.49)" id="img-d21cddab-54">
      <g class="primitive">
        <text text-anchor="end" dy="0.35em">2</text>
      </g>
    </g>
    <g transform="translate(16.4,25.33)" id="img-d21cddab-55">
      <g class="primitive">
        <text text-anchor="end" dy="0.35em">3</text>
      </g>
    </g>
    <g transform="translate(16.4,16.16)" id="img-d21cddab-56">
      <g class="primitive">
        <text text-anchor="end" dy="0.35em">4</text>
      </g>
    </g>
    <g transform="translate(16.4,7)" id="img-d21cddab-57">
      <g class="primitive">
        <text text-anchor="end" dy="0.35em">5</text>
      </g>
    </g>
  </g>
  <g font-size="3.88" font-family="'PT Sans','Helvetica Neue','Helvetica',sans-serif" fill="#564A55" stroke="#000000" stroke-opacity="0.000" id="img-d21cddab-58">
    <g transform="translate(8.81,41.66)" id="img-d21cddab-59">
      <g class="primitive">
        <text text-anchor="middle" dy="0.35em" transform="rotate(-90,0, 2)">Change from a year ago, percent</text>
      </g>
    </g>
  </g>
</g>
<defs>
  <clipPath id="img-d21cddab-4">
    <path d="M17.4,5 L122,5 122,82.32 17.4,82.32 " />
  </clipPath>
</defs>
</svg>
