<?xml version="1.0" encoding="UTF-8"?>
<svg xmlns="http://www.w3.org/2000/svg"
     xmlns:xlink="http://www.w3.org/1999/xlink"
     xmlns:gadfly="http://www.gadflyjl.org/ns"
     version="1.2"
     width="127mm" height="101.6mm" viewBox="0 0 127 101.6"
     stroke="none"
     fill="#000000"
     stroke-width="0.3"
     font-size="3.88"
>
<defs>
  <marker id="arrow" markerWidth="15" markerHeight="7" refX="5" refY="3.5" orient="auto" markerUnits="strokeWidth">
    <path d="M0,0 L15,3.5 L0,7 z" stroke="context-stroke" fill="context-stroke"/>
  </marker>
</defs>
<g class="plotroot xscalable yscalable" id="img-a651af60-1">
  <g font-size="3.88" font-family="'PT Sans','Helvetica Neue','Helvetica',sans-serif" fill="#564A55" stroke="#000000" stroke-opacity="0.000" id="img-a651af60-2">
    <g transform="translate(70.54,89.99)">
      <g class="primitive">
        <text text-anchor="middle" dy="0.6em">Time</text>
      </g>
    </g>
  </g>
  <g class="guide xlabels" font-size="2.82" font-family="'PT Sans Caption','Helvetica Neue','Helvetica',sans-serif" fill="#6C606B" id="img-a651af60-3">
    <g transform="translate(-1.83,83.32)">
      <g class="primitive">
        <text text-anchor="middle" dy="0.6em">2005</text>
      </g>
    </g>
    <g transform="translate(36.23,83.32)">
      <g class="primitive">
        <text text-anchor="middle" dy="0.6em">2010</text>
      </g>
    </g>
    <g transform="translate(74.29,83.32)">
      <g class="primitive">
        <text text-anchor="middle" dy="0.6em">2015</text>
      </g>
    </g>
    <g transform="translate(112.35,83.32)">
      <g class="primitive">
        <text text-anchor="middle" dy="0.6em">2020</text>
      </g>
    </g>
    <g transform="translate(150.43,83.32)">
      <g class="primitive">
        <text text-anchor="middle" dy="0.6em">2025</text>
      </g>
    </g>
  </g>
  <g clip-path="url(#img-a651af60-4)">
    <g id="img-a651af60-5">
      <g pointer-events="visible" stroke-width="0.3" fill="#000000" fill-opacity="0.000" stroke="#000000" stroke-opacity="0.000" class="guide background" id="img-a651af60-6">
        <g transform="translate(70.54,43.66)" id="img-a651af60-7">
          <path d="M-51.46,-38.66 L51.46,-38.66 51.46,38.66 -51.46,38.66  z" class="primitive"/>
        </g>
      </g>
      <g class="guide ygridlines xfixed" stroke-dasharray="0.5,0.5" stroke-width="0.2" stroke="#D0D0E0" id="img-a651af60-8">
        <g transform="translate(70.54,80.32)" id="img-a651af60-9">
          <path fill="none" d="M-51.46,0 L51.46,0 " class="primitive"/>
        </g>
        <g transform="translate(70.54,61.99)" id="img-a651af60-10">
          <path fill="none" d="M-51.46,0 L51.46,0 " class="primitive"/>
        </g>
        <g transform="translate(70.54,43.66)" id="img-a651af60-11">
          <path fill="none" d="M-51.46,0 L51.46,0 " class="primitive"/>
        </g>
        <g transform="translate(70.54,25.33)" id="img-a651af60-12">
          <path fill="none" d="M-51.46,0 L51.46,0 " class="primitive"/>
        </g>
        <g transform="translate(70.54,7)" id="img-a651af60-13">
          <path fill="none" d="M-51.46,0 L51.46,0 " class="primitive"/>
        </g>
      </g>
      <g class="guide xgridlines yfixed" stroke-dasharray="0.5,0.5" stroke-width="0.2" stroke="#D0D0E0" id="img-a651af60-14">
        <g transform="translate(-1.83,43.66)" id="img-a651af60-15">
          <path fill="none" d="M0,-38.66 L0,38.66 " class="primitive"/>
        </g>
        <g transform="translate(36.23,43.66)" id="img-a651af60-16">
          <path fill="none" d="M0,-38.66 L0,38.66 " class="primitive"/>
        </g>
        <g transform="translate(74.29,43.66)" id="img-a651af60-17">
          <path fill="none" d="M0,-38.66 L0,38.66 " class="primitive"/>
        </g>
        <g transform="translate(112.35,43.66)" id="img-a651af60-18">
          <path fill="none" d="M0,-38.66 L0,38.66 " class="primitive"/>
        </g>
        <g transform="translate(150.43,43.66)" id="img-a651af60-19">
          <path fill="none" d="M0,-38.66 L0,38.66 " class="primitive"/>
        </g>
      </g>
      <g class="plotpanel" id="img-a651af60-20">
        <metadata>
          <boundingbox value="19.07166666666666mm 5.0mm 102.92833333333334mm 77.315mm"/>
          <unitbox value="2007-10-01 5.545590943190343 4938 days -21.09118188638069"/>
        </metadata>
        <g class="yfixed" id="img-a651af60-21">
          <g stroke-dasharray="none" stroke-width="10.5" stroke="#808080" id="img-a651af60-22">
            <g transform="translate(26.08,43.66)" id="img-a651af60-23">
              <path fill="none" d="M0,-38.66 L0,38.66 " class="primitive"/>
            </g>
          </g>
        </g>
        <g stroke-width="0.3" fill="#000000" fill-opacity="0.000" class="geometry" id="img-a651af60-24">
          <g class="color_RGB{N0f8}(0.0,0.749,1.0)" stroke-dasharray="none" stroke="#00BFFF" id="img-a651af60-25">
            <g transform="translate(68.56,20.3)" id="img-a651af60-26">
              <path fill="none" d="M-47.57,0.81 L-45.68,1.02 -43.78,5.02 -41.86,15.12 -39.95,17.08 -38.07,19.41 -36.17,16.21 -34.26,4.36 -32.34,-1.24 -30.46,-5.22 -28.57,-6.62 -26.65,-4.39 -24.73,-2.05 -22.85,-1.28 -20.96,1.55 -19.04,-0.87 -17.12,-4.69 -15.22,-3.63 -13.33,-4.24 -11.41,-0.36 -9.49,-0.74 -7.62,0.4 -5.72,-2 -3.8,-4.56 -1.88,-0.2 -0.01,-4.77 1.89,-6.4 3.81,-5.52 5.72,-10.18 7.6,-7.63 9.5,-4.41 11.41,-2.91 13.33,-1.49 15.23,-0.14 17.13,-0.81 19.04,-2.55 20.96,-2.55 22.84,-2.98 24.73,-3.67 26.65,-4.88 28.57,-6.25 30.44,-7.16 32.34,-6.4 34.26,-4.05 36.18,-3.28 38.05,-2.17 39.95,-2.59 41.87,-3.55 43.78,3.86 45.68,38.14 47.58,15.47 " class="primitive"/>
            </g>
          </g>
        </g>
        <g class="yfixed" id="img-a651af60-27">
          <g stroke-dasharray="1,1" stroke-width="0.3" stroke="#000000" id="img-a651af60-28">
            <g transform="translate(113.14,43.66)" id="img-a651af60-29">
              <path fill="none" d="M0,-38.66 L0,38.66 " class="primitive"/>
            </g>
          </g>
        </g>
        <g stroke-width="0.3" fill="#000000" fill-opacity="0.000" class="geometry" id="img-a651af60-30">
          <g class="color_RGB{N0f8}(1.0,0.0,0.0)" stroke-dasharray="none" stroke="#FF0000" id="img-a651af60-31">
            <g transform="translate(70.54,20.97)" id="img-a651af60-32">
              <path fill="none" d="M-49.46,-0.85 L-49.32,-1 -49.17,-0.78 -49.03,0.83 -48.88,1.68 -48.73,1.49 -48.59,0.03 -48.44,1.02 -48.3,0.87 -48.15,2.45 -48,1.93 -47.86,1.68 -47.71,0.83 -47.57,0.47 -47.42,1.24 -47.27,0.72 -47.13,2.67 -46.98,2.59 -46.84,2.45 -46.69,2.7 -46.54,2.85 -46.4,2.85 -46.25,2.48 -46.11,3.11 -45.96,3.84 -45.82,2.48 -45.67,1.16 -45.52,3.25 -45.38,3.95 -45.23,3.77 -45.09,3.44 -44.94,4.02 -44.79,4.46 -44.65,4.32 -44.5,4.13 -44.36,4.46 -44.21,5.75 -44.06,7.1 -43.92,7.51 -43.77,7.58 -43.63,7.91 -43.48,7.76 -43.33,8.06 -43.19,8.35 -43.04,10.55 -42.9,12.16 -42.75,8.97 -42.61,13.74 -42.46,13.7 -42.31,13.19 -42.17,15.24 -42.02,14.84 -41.88,15.94 -41.73,16.38 -41.58,16.45 -41.44,15.17 -41.29,16.41 -41.15,16.27 -41,17.59 -40.85,17.95 -40.71,18.76 -40.56,17.44 -40.42,17.22 -40.27,16.19 -40.12,17.62 -39.98,16.82 -39.83,16.96 -39.69,18.06 -39.54,16.89 -39.4,16.71 -39.25,17.33 -39.1,17 -38.96,16.6 -38.81,17.15 -38.67,18.14 -38.52,17.88 -38.37,17.18 -38.23,17.88 -38.08,16.38 -37.94,17.4 -37.79,16.71 -37.64,16.85 -37.5,15.75 -37.35,15.53 -37.21,14.43 -37.06,14.1 -36.91,13.81 -36.77,11.98 -36.62,12.64 -36.48,10.51 -36.33,10.18 -36.19,9.19 -36.04,8.2 -35.89,7.84 -35.75,6.99 -35.6,5.82 -35.46,4.5 -35.31,2.74 -35.16,1.46 -35.02,-0.45 -34.87,0.54 -34.73,-0.08 -34.58,-3.45 -34.43,-4.33 -34.29,-2.39 -34.14,-2.24 -34,-2.79 -33.85,-2.54 -33.7,-3.89 -33.56,-5.1 -33.41,-5.03 -33.27,-7.12 -33.12,-8.11 -32.98,-8.55 -32.83,-8.48 -32.68,-8.26 -32.54,-10.16 -32.39,-9.17 -32.25,-9.21 -32.1,-9.83 -31.95,-10.02 -31.81,-10.82 -31.66,-11.48 -31.52,-10.93 -31.37,-9.83 -31.22,-12.62 -31.08,-10.79 -30.93,-10.46 -30.79,-11.04 -30.64,-10.75 -30.49,-12.03 -30.35,-8.92 -30.2,-9.28 -30.06,-10.6 -29.91,-9.54 -29.77,-9.17 -29.62,-8.84 -29.47,-9.25 -29.33,-8.77 -29.18,-9.65 -29.04,-8.77 -28.89,-8 -28.74,-8.81 -28.6,-7.82 -28.45,-6.75 -28.31,-7.49 -28.16,-8.44 -28.01,-7.63 -27.87,-7.78 -27.72,-7.34 -27.58,-6.9 -27.43,-7.52 -27.28,-8.29 -27.14,-7.27 -26.99,-6.79 -26.85,-9.98 -26.7,-7.93 -26.56,-6.83 -26.41,-6.79 -26.26,-6.35 -26.12,-6.79 -25.97,-5.65 -25.83,-7.12 -25.68,-6.53 -25.53,-5.98 -25.39,-5.73 -25.24,-5.84 -25.1,-6.02 -24.95,-5.1 -24.8,-5.76 -24.66,-6.2 -24.51,-5.98 -24.37,-5.51 -24.22,-3.86 -24.07,-3.2 -23.93,-4.55 -23.78,-4.15 -23.64,-3.67 -23.49,-4.3 -23.35,-3.97 -23.2,-3.93 -23.05,-2.9 -22.91,-4.44 -22.76,-3.71 -22.62,-3.38 -22.47,-3.34 -22.32,-4.66 -22.18,-4.81 -22.03,-3.05 -21.89,-2.83 -21.74,-3.64 -21.59,-3.16 -21.45,-2.83 -21.3,-3.05 -21.16,-2.76 -21.01,-3.86 -20.86,-4.15 -20.72,-3.45 -20.57,-2.32 -20.43,-3.78 -20.28,-3.27 -20.14,-3.45 -19.99,-3.09 -19.84,-3.2 -19.7,-2.54 -19.55,-1.99 -19.41,-3.93 -19.26,-4 -19.11,-2.43 -18.97,-1.47 -18.82,-1.62 -18.68,-2.9 -18.53,-1 -18.38,-1.99 -18.24,-2.1 -18.09,-1.69 -17.95,-2.39 -17.8,-2.1 -17.65,-2.65 -17.51,-1.66 -17.36,-3.01 -17.22,-3.82 -17.07,-3.86 -16.93,-3.16 -16.78,-3.12 -16.63,-4.63 -16.49,-5.18 -16.34,-3.67 -16.2,-3.53 -16.05,-4.26 -15.9,-3.2 -15.76,-3.09 -15.61,-3.01 -15.47,-3.53 -15.32,-3.93 -15.17,-3.78 -15.03,-2.83 -14.88,-2.35 -14.74,-2.61 -14.59,-3.45 -14.44,-3.93 -14.3,-3.01 -14.15,-2.28 -14.01,-3.86 -13.86,-4.22 -13.72,-3.42 -13.57,-3.16 -13.42,-3.6 -13.28,-3.53 -13.13,-3.38 -12.99,-3.12 -12.84,-2.87 -12.69,-0.96 -12.55,-1.36 -12.4,-3.12 -12.26,-4.08 -12.11,-2.98 -11.96,-1.73 -11.82,-3.05 -11.67,-3.97 -11.53,-3.34 -11.38,-3.89 -11.23,-4.3 -11.09,-3.71 -10.94,-4.52 -10.8,-3.82 -10.65,-2.9 -10.51,-3.45 -10.36,-3.23 -10.21,-3.27 -10.07,-2.54 -9.92,-2.79 -9.78,-2.72 -9.63,-1.88 -9.48,-2.17 -9.34,-1.58 -9.19,-2.68 -9.05,-1.77 -8.9,-1.4 -8.75,-1.88 -8.61,-3.23 -8.46,-1.91 -8.32,-3.34 -8.17,-2.32 -8.02,-3.71 -7.88,-3.53 -7.73,-4.15 -7.59,-3.93 -7.44,-3.67 -7.3,-4.37 -7.15,-3.45 -7,-3.49 -6.86,-3.38 -6.71,-3.53 -6.57,-4.44 -6.42,-5.29 -6.27,-5.54 -6.13,-5.69 -5.98,-4.3 -5.84,-4.08 -5.69,-3.89 -5.54,-3.2 -5.4,-3.27 -5.25,-4.74 -5.11,-6.68 -4.96,-4.63 -4.81,-4.48 -4.67,-7.89 -4.52,-4.44 -4.38,-2.54 -4.23,-3.45 -4.09,-5.4 -3.94,-4.77 -3.79,-3.27 -3.65,-1.14 -3.5,-1.8 -3.36,-3.2 -3.21,-2.72 -3.06,-1.95 -2.92,-2.28 -2.77,-2.76 -2.63,-3.42 -2.48,-4.37 -2.33,-4.96 -2.19,-4.81 -2.04,-5.03 -1.9,-5.43 -1.75,-4.88 -1.6,-3.67 -1.46,-4.44 -1.31,-5.1 -1.17,-5.69 -1.02,-3.67 -0.88,-5.25 -0.73,-4.92 -0.58,-4.37 -0.44,-4.37 -0.29,-4.04 -0.15,-3.27 0,-6.13 0.15,-4.52 0.29,-3.53 0.44,-4.33 0.58,-5.73 0.73,-4.74 0.88,-4.44 1.02,-4.81 1.17,-5.18 1.31,-4.15 1.46,-4.19 1.6,-4.77 1.75,-4.92 1.9,-5.47 2.04,-6.13 2.19,-5.54 2.33,-5.29 2.48,-4.74 2.63,-5.21 2.77,-4.81 2.92,-5.18 3.06,-5.76 3.21,-6.5 3.36,-6.53 3.5,-7.16 3.65,-7.45 3.79,-4.59 3.94,-5.95 4.09,-5.91 4.23,-5.1 4.38,-5.14 4.52,-4.81 4.67,-6.42 4.81,-4.88 4.96,-3.45 5.11,-3.27 5.25,-3.82 5.4,-3.75 5.54,-4.52 5.69,-4 5.84,-2.68 5.98,-3.75 6.13,-4.08 6.27,-3.6 6.42,-3.12 6.57,-3.42 6.71,-2.43 6.86,-1.62 7,-3.2 7.15,-2.9 7.3,-2.94 7.44,-2.46 7.59,-2.28 7.73,-1.69 7.88,-3.09 8.02,-1.99 8.17,-2.28 8.32,-2.54 8.46,-3.42 8.61,-2.06 8.75,-0.96 8.9,-3.01 9.05,-1.11 9.19,-2.28 9.34,-1.51 9.48,-2.43 9.63,-1.03 9.78,-2.06 9.92,-1.55 10.07,-1.03 10.21,-0.56 10.36,-0.05 10.51,0.91 10.65,-0.67 10.8,-0.56 10.94,1.68 11.09,1.16 11.23,0.43 11.38,1.24 11.53,1.9 11.67,1.6 11.82,1.42 11.96,0.91 12.11,-0.16 12.26,-0.19 12.4,-1.07 12.55,-0.49 12.69,-1.07 12.84,0.43 12.99,0.61 13.13,1.35 13.28,0.72 13.42,-0.92 13.57,-0.41 13.72,0.21 13.86,-0.49 14.01,0.5 14.15,-0.74 14.3,-0.19 14.44,-3.09 14.59,-0.16 14.74,-0.74 14.88,-1.22 15.03,-1.22 15.17,-3.38 15.32,0.06 15.47,-0.59 15.61,-1.66 15.76,-1.33 15.9,-1.84 16.05,-0.74 16.2,-1.22 16.34,-1.51 16.49,-1.33 16.63,-0.85 16.78,-0.96 16.93,-0.85 17.07,-2.06 17.22,-1.88 17.36,-1 17.51,-1.11 17.65,-1.95 17.8,-2.72 17.95,-2.5 18.09,-3.31 18.24,-2.98 18.38,-2.39 18.53,-2.68 18.68,-3.49 18.82,-6.28 18.97,-3.71 19.11,-2.17 19.26,-2.54 19.41,-0.63 19.55,-3.78 19.7,-4.77 19.84,-1.84 19.99,-3.23 20.14,-3.89 20.28,-3.71 20.43,-5.07 20.57,-4.15 20.72,-4.88 20.86,-5.1 21.01,-4.33 21.16,-4 21.3,-3.27 21.45,-4.96 21.59,-4.85 21.74,-4.37 21.89,-5.18 22.03,-3.12 22.18,-3.56 22.32,-3.49 22.47,-4.88 22.62,-3.45 22.76,-4.11 22.91,-4.41 23.05,-3.86 23.2,-3.6 23.35,-4.22 23.49,-4.26 23.64,-3.53 23.78,-4.52 23.93,-4.77 24.07,-2.5 24.22,-3.31 24.37,-3.49 24.51,-4.63 24.66,-4.19 24.8,-4.41 24.95,-5.07 25.1,-4.7 25.24,-4.26 25.39,-4.22 25.53,-3.86 25.68,-4.7 25.83,-4.19 25.97,-4.33 26.12,-4 26.26,-4.37 26.41,-5.84 26.56,-4.92 26.7,-3.97 26.85,-4.99 26.99,-5.58 27.14,-4.66 27.28,-3.31 27.43,-4.52 27.58,-4.33 27.72,-4.19 27.87,-4.26 28.01,-3.49 28.16,-4.33 28.31,-4.22 28.45,-3.82 28.6,-3.34 28.74,-4.41 28.89,-4.52 29.04,-3.49 29.18,-4.85 29.33,-4.44 29.47,-2.87 29.62,-5.29 29.77,-4.55 29.91,-4.92 30.06,-3.42 30.2,-3.56 30.35,-4.92 30.49,-4.59 30.64,-4.19 30.79,-4.26 30.93,-3.89 31.08,-4.59 31.22,-4.85 31.37,-4.81 31.52,-5.51 31.66,-8.88 31.81,-6.72 31.95,-6.09 32.1,-6.17 32.25,-5.84 32.39,-6.5 32.54,-5.43 32.68,-4.59 32.83,-5.87 32.98,-5.1 33.12,-5.18 33.27,-4.96 33.41,-5.87 33.56,-5.07 33.7,-5.29 33.85,-5.73 34,-5.18 34.14,-4.19 34.29,-3.86 34.43,-3.38 34.58,-4.52 34.73,-3.86 34.87,-2.94 35.02,-1.58 35.16,-2.24 35.31,-3.42 35.46,-2.65 35.6,-2.46 35.75,-2.79 35.89,-2.17 36.04,-3.16 36.19,-3.86 36.33,-2.98 36.48,-3.67 36.62,-2.57 36.77,-2.68 36.91,-2.57 37.06,-2.35 37.21,-2.13 37.35,-2.57 37.5,-2.1 37.64,-2.35 37.79,-2.61 37.94,-2.17 38.08,-3.45 38.23,-1.29 38.37,-2.39 38.52,-1.84 38.67,-2.32 38.81,-1.58 38.96,-1.44 39.1,-1.58 39.25,-1.07 39.4,-1.95 39.54,-1.29 39.69,-0.67 39.83,-1.33 39.98,-1.25 40.12,-0.74 40.27,-1.29 40.42,-1 40.56,-1.44 40.71,-1.11 40.85,-0.34 41,-3.89 41.15,-1 41.29,0.91 41.44,-0.74 41.58,-2.35 41.73,-2.76 41.88,-1.91 42.02,-0.12 42.17,-1.11 42.31,-1.58 42.46,-3.01 42.61,-2.43 42.75,-1.36 42.9,-1.14 43.04,-1.33 43.19,-0.85 43.33,0.43 43.48,16.49 43.63,30.16 43.77,37.38 43.92,44.31 44.06,45.74 44.21,46.33 44.36,45.85 44.5,42.99 44.65,42.66 44.79,40.35 44.94,39.36 45.09,38.04 45.23,35.62 45.38,33.13 45.52,32.29 45.67,30.71 45.82,29.87 45.96,32.21 46.11,30.75 46.25,29.13 46.4,26.6 46.54,26.9 46.69,23.82 46.84,21.99 46.98,22.98 47.13,26.09 47.27,22.57 47.42,22.32 47.57,20.3 47.71,19.16 47.86,19.13 48,17.22 48.15,16.01 48.3,15.2 48.44,15.39 48.59,14.87 48.73,12.02 48.88,13.41 49.03,14.32 49.17,11.5 49.32,5.6 49.46,8.72 " class="primitive"/>
            </g>
          </g>
        </g>
      </g>
      <g class="guide colorkey" id="img-a651af60-33">
        <g fill="#4C404B" font-size="2.82" font-family="'PT Sans','Helvetica Neue','Helvetica',sans-serif" id="img-a651af60-34">
          <g transform="translate(37.08,66.05)" id="img-a651af60-35">
            <g class="primitive">
              <text dy="0.35em">Weekly Economic Index (Lewis-Mertens-Stock)</text>
            </g>
          </g>
          <g transform="translate(37.08,69.67)" id="img-a651af60-36">
            <g class="primitive">
              <text dy="0.35em">Real U.S. GDP (vintage: 2021-01-05)</text>
            </g>
          </g>
        </g>
        <g stroke-width="0.3" id="img-a651af60-37">
          <g stroke="#FFFFFF" fill-opacity="1" fill="#00BFFF" id="img-a651af60-38">
            <g transform="translate(34.27,69.67)" id="img-a651af60-39">
              <circle cx="0" cy="0" r="0.9" class="primitive"/>
            </g>
          </g>
          <g stroke="#FFFFFF" fill-opacity="1" fill="#FF0000" id="img-a651af60-40">
            <g transform="translate(34.27,66.05)" id="img-a651af60-41">
              <circle cx="0" cy="0" r="0.9" class="primitive"/>
            </g>
          </g>
        </g>
        <g fill="#362A35" font-size="3.88" font-family="'PT Sans','Helvetica Neue','Helvetica',sans-serif" stroke="#000000" stroke-opacity="0.000" id="img-a651af60-42">
          <g transform="translate(33.45,62.73)" id="img-a651af60-43">
            <g class="primitive">
              <text dy="-0em">Economic output</text>
            </g>
          </g>
        </g>
      </g>
    </g>
  </g>
  <g class="guide ylabels" font-size="2.82" font-family="'PT Sans Caption','Helvetica Neue','Helvetica',sans-serif" fill="#6C606B" id="img-a651af60-44">
    <g transform="translate(18.07,80.32)" id="img-a651af60-45">
      <g class="primitive">
        <text text-anchor="end" dy="0.35em">-15</text>
      </g>
    </g>
    <g transform="translate(18.07,61.99)" id="img-a651af60-46">
      <g class="primitive">
        <text text-anchor="end" dy="0.35em">-10</text>
      </g>
    </g>
    <g transform="translate(18.07,43.66)" id="img-a651af60-47">
      <g class="primitive">
        <text text-anchor="end" dy="0.35em">-5</text>
      </g>
    </g>
    <g transform="translate(18.07,25.33)" id="img-a651af60-48">
      <g class="primitive">
        <text text-anchor="end" dy="0.35em">0</text>
      </g>
    </g>
    <g transform="translate(18.07,7)" id="img-a651af60-49">
      <g class="primitive">
        <text text-anchor="end" dy="0.35em">5</text>
      </g>
    </g>
  </g>
  <g font-size="3.88" font-family="'PT Sans','Helvetica Neue','Helvetica',sans-serif" fill="#564A55" stroke="#000000" stroke-opacity="0.000" id="img-a651af60-50">
    <g transform="translate(8.81,41.66)" id="img-a651af60-51">
      <g class="primitive">
        <text text-anchor="middle" dy="0.35em" transform="rotate(-90,0, 2)">Output change from a year ago, percent</text>
      </g>
    </g>
  </g>
</g>
<defs>
  <clipPath id="img-a651af60-4">
    <path d="M19.07,5 L122,5 122,82.32 19.07,82.32 " />
  </clipPath>
</defs>
</svg>
