<?xml version="1.0" encoding="UTF-8"?>
<svg xmlns="http://www.w3.org/2000/svg"
     xmlns:xlink="http://www.w3.org/1999/xlink"
     xmlns:gadfly="http://www.gadflyjl.org/ns"
     version="1.2"
     width="127mm" height="101.6mm" viewBox="0 0 127 101.6"
     stroke="none"
     fill="#000000"
     stroke-width="0.3"
     font-size="3.88"
>
<defs>
  <marker id="arrow" markerWidth="15" markerHeight="7" refX="5" refY="3.5" orient="auto" markerUnits="strokeWidth">
    <path d="M0,0 L15,3.5 L0,7 z" stroke="context-stroke" fill="context-stroke"/>
  </marker>
</defs>
<g class="plotroot xscalable yscalable" id="img-92165c64-1">
  <g font-size="3.88" font-family="'PT Sans','Helvetica Neue','Helvetica',sans-serif" fill="#564A55" stroke="#000000" stroke-opacity="0.000" id="img-92165c64-2">
    <g transform="translate(70.54,89.99)">
      <g class="primitive">
        <text text-anchor="middle" dy="0.6em">Month(s) since the start of the recession</text>
      </g>
    </g>
  </g>
  <g class="guide xlabels" font-size="2.82" font-family="'PT Sans Caption','Helvetica Neue','Helvetica',sans-serif" fill="#6C606B" id="img-92165c64-3">
    <g transform="translate(48.05,83.32)">
      <g class="primitive">
        <text text-anchor="middle" dy="0.6em">10</text>
      </g>
    </g>
    <g transform="translate(78.03,83.32)">
      <g class="primitive">
        <text text-anchor="middle" dy="0.6em">20</text>
      </g>
    </g>
    <g transform="translate(108.01,83.32)">
      <g class="primitive">
        <text text-anchor="middle" dy="0.6em">30</text>
      </g>
    </g>
  </g>
  <g clip-path="url(#img-92165c64-4)">
    <g id="img-92165c64-5">
      <g pointer-events="visible" stroke-width="0.3" fill="#000000" fill-opacity="0.000" stroke="#000000" stroke-opacity="0.000" class="guide background" id="img-92165c64-6">
        <g transform="translate(70.54,43.66)" id="img-92165c64-7">
          <path d="M-51.46,-38.66 L51.46,-38.66 51.46,38.66 -51.46,38.66  z" class="primitive"/>
        </g>
      </g>
      <g class="guide ygridlines xfixed" stroke-dasharray="0.5,0.5" stroke-width="0.2" stroke="#D0D0E0" id="img-92165c64-8">
        <g transform="translate(70.54,80.32)" id="img-92165c64-9">
          <path fill="none" d="M-51.46,0 L51.46,0 " class="primitive"/>
        </g>
        <g transform="translate(70.54,61.99)" id="img-92165c64-10">
          <path fill="none" d="M-51.46,0 L51.46,0 " class="primitive"/>
        </g>
        <g transform="translate(70.54,43.66)" id="img-92165c64-11">
          <path fill="none" d="M-51.46,0 L51.46,0 " class="primitive"/>
        </g>
        <g transform="translate(70.54,25.33)" id="img-92165c64-12">
          <path fill="none" d="M-51.46,0 L51.46,0 " class="primitive"/>
        </g>
        <g transform="translate(70.54,7)" id="img-92165c64-13">
          <path fill="none" d="M-51.46,0 L51.46,0 " class="primitive"/>
        </g>
      </g>
      <g class="guide xgridlines yfixed" stroke-dasharray="0.5,0.5" stroke-width="0.2" stroke="#D0D0E0" id="img-92165c64-14">
        <g transform="translate(48.05,43.66)" id="img-92165c64-15">
          <path fill="none" d="M0,-38.66 L0,38.66 " class="primitive"/>
        </g>
        <g transform="translate(78.03,43.66)" id="img-92165c64-16">
          <path fill="none" d="M0,-38.66 L0,38.66 " class="primitive"/>
        </g>
        <g transform="translate(108.01,43.66)" id="img-92165c64-17">
          <path fill="none" d="M0,-38.66 L0,38.66 " class="primitive"/>
        </g>
      </g>
      <g class="plotpanel" id="img-92165c64-18">
        <metadata>
          <boundingbox value="19.07166666666666mm 5.0mm 102.92833333333333mm 77.315mm"/>
          <unitbox value="0.3328503799046447 22.182363772761374 34.33429924019071 -84.36472754552275"/>
        </metadata>
        <g stroke-width="0.3" fill="#000000" fill-opacity="0.000" class="geometry" id="img-92165c64-19">
          <g class="color_RGB{N0f8}(0.0,0.749,1.0)" stroke-dasharray="none" stroke="#00BFFF" id="img-92165c64-20">
            <g transform="translate(34.56,42.88)" id="img-92165c64-21">
              <path fill="none" d="M-13.49,-10.1 L-10.49,-9.44 -7.49,-1.69 -4.5,2.82 -1.5,4.48 1.5,4.18 4.5,4.4 7.49,2.55 10.49,1.33 13.49,1.47 " class="primitive"/>
            </g>
          </g>
        </g>
        <g stroke-width="0.3" fill="#000000" fill-opacity="0.000" class="geometry" id="img-92165c64-22">
          <g class="color_RGB{N0f8}(0.0,0.749,1.0)" stroke-dasharray="4,1" stroke="#00BFFF" id="img-92165c64-23">
            <g transform="translate(70.54,25.29)" id="img-92165c64-24">
              <path fill="none" d="M-49.46,-9.65 L-46.47,-9.88 -43.47,-9.89 -40.47,-10.33 -37.47,-10.6 -34.48,-9.31 -31.48,-7.64 -28.48,-3.96 -25.48,-0.09 -22.48,3.02 -19.49,7.85 -16.49,10.65 -13.49,13.22 -10.49,14.93 -7.49,16.38 -4.5,17.07 -1.5,18.46 1.5,17.93 4.5,16.68 7.49,13.92 10.49,10.87 13.49,7.62 16.49,2.22 19.49,-1.24 22.48,-4.35 25.48,-6.15 28.48,-8.12 31.48,-9.39 34.48,-11.15 37.47,-11.41 40.47,-11.73 43.47,-11.91 46.47,-11.9 49.46,-12.12 " class="primitive"/>
            </g>
          </g>
        </g>
        <g stroke-width="0.3" fill="#000000" fill-opacity="0.000" class="geometry" id="img-92165c64-25">
          <g class="color_RGB{N0f8}(1.0,0.0,0.0)" stroke-dasharray="none" stroke="#FF0000" id="img-92165c64-26">
            <g transform="translate(34.56,41.54)" id="img-92165c64-27">
              <path fill="none" d="M-13.49,-15.7 L-10.49,-11.69 -7.49,23.07 -4.5,18.57 -1.5,-1.18 1.5,-2.14 4.5,-2.02 7.49,-2.34 10.49,-3.13 13.49,-3.44 " class="primitive"/>
            </g>
          </g>
        </g>
        <g stroke-width="0.3" fill="#000000" fill-opacity="0.000" class="geometry" id="img-92165c64-28">
          <g class="color_RGB{N0f8}(1.0,0.0,0.0)" stroke-dasharray="4,1" stroke="#FF0000" id="img-92165c64-29">
            <g transform="translate(70.54,28.09)" id="img-92165c64-30">
              <path fill="none" d="M-49.46,-1.9 L-46.47,-1.11 -43.47,-1.24 -40.47,-0.54 -37.47,0.59 -34.48,2.05 -31.48,3.41 -28.48,3.9 -25.48,4.35 -22.48,4.97 -19.49,5.2 -16.49,4.88 -13.49,5.13 -10.49,4.36 -7.49,4.59 -4.5,4.03 -1.5,3.38 1.5,2.6 4.5,0.24 7.49,-0.48 10.49,-1.48 13.49,-2.17 16.49,-2.71 19.49,-2.74 22.48,-3.48 25.48,-3.57 28.48,-3.97 31.48,-3.88 34.48,-4.12 37.47,-4.54 40.47,-3.3 43.47,-4.04 46.47,-3.71 49.46,-4.7 " class="primitive"/>
            </g>
          </g>
        </g>
      </g>
      <g class="geometry" id="img-92165c64-31">
        <g transform="translate(45.05,52.82)" id="img-92165c64-32">
          <g class="primitive">
            <text dy="-0em">Solid - 2020 Pandemic</text>
          </g>
        </g>
      </g>
      <g class="geometry" id="img-92165c64-33">
        <g transform="translate(84.03,10.67)" id="img-92165c64-34">
          <g class="primitive">
            <text dy="-0em">Dash - 2008 Recession</text>
          </g>
        </g>
      </g>
      <g class="guide colorkey" id="img-92165c64-35">
        <g fill="#4C404B" font-size="2.82" font-family="'PT Sans','Helvetica Neue','Helvetica',sans-serif" id="img-92165c64-36">
          <g transform="translate(37.08,73.78)" id="img-92165c64-37">
            <g class="primitive">
              <text dy="0.35em">Nevada: Leisure and hospitality</text>
            </g>
          </g>
          <g transform="translate(37.08,77.41)" id="img-92165c64-38">
            <g class="primitive">
              <text dy="0.35em">Texas: Oil and gas</text>
            </g>
          </g>
        </g>
        <g stroke-width="0.3" id="img-92165c64-39">
          <g stroke="#FFFFFF" fill-opacity="1" fill="#00BFFF" id="img-92165c64-40">
            <g transform="translate(34.27,77.41)" id="img-92165c64-41">
              <circle cx="0" cy="0" r="0.9" class="primitive"/>
            </g>
          </g>
          <g stroke="#FFFFFF" fill-opacity="1" fill="#FF0000" id="img-92165c64-42">
            <g transform="translate(34.27,73.78)" id="img-92165c64-43">
              <circle cx="0" cy="0" r="0.9" class="primitive"/>
            </g>
          </g>
        </g>
        <g fill="#362A35" font-size="3.88" font-family="'PT Sans','Helvetica Neue','Helvetica',sans-serif" stroke="#000000" stroke-opacity="0.000" id="img-92165c64-44">
          <g transform="translate(33.45,70.47)" id="img-92165c64-45">
            <g class="primitive">
              <text dy="-0em">Employment by state: industry</text>
            </g>
          </g>
        </g>
      </g>
    </g>
  </g>
  <g class="guide ylabels" font-size="2.82" font-family="'PT Sans Caption','Helvetica Neue','Helvetica',sans-serif" fill="#6C606B" id="img-92165c64-46">
    <g transform="translate(18.07,80.32)" id="img-92165c64-47">
      <g class="primitive">
        <text text-anchor="end" dy="0.35em">-60</text>
      </g>
    </g>
    <g transform="translate(18.07,61.99)" id="img-92165c64-48">
      <g class="primitive">
        <text text-anchor="end" dy="0.35em">-40</text>
      </g>
    </g>
    <g transform="translate(18.07,43.66)" id="img-92165c64-49">
      <g class="primitive">
        <text text-anchor="end" dy="0.35em">-20</text>
      </g>
    </g>
    <g transform="translate(18.07,25.33)" id="img-92165c64-50">
      <g class="primitive">
        <text text-anchor="end" dy="0.35em">0</text>
      </g>
    </g>
    <g transform="translate(18.07,7)" id="img-92165c64-51">
      <g class="primitive">
        <text text-anchor="end" dy="0.35em">20</text>
      </g>
    </g>
  </g>
  <g font-size="3.88" font-family="'PT Sans','Helvetica Neue','Helvetica',sans-serif" fill="#564A55" stroke="#000000" stroke-opacity="0.000" id="img-92165c64-52">
    <g transform="translate(8.81,41.66)" id="img-92165c64-53">
      <g class="primitive">
        <text text-anchor="middle" dy="0.35em" transform="rotate(-90,0, 2)">Year over year growth (percent)</text>
      </g>
    </g>
  </g>
</g>
<defs>
  <clipPath id="img-92165c64-4">
    <path d="M19.07,5 L122,5 122,82.32 19.07,82.32 " />
  </clipPath>
</defs>
</svg>
