<?xml version="1.0" encoding="UTF-8"?>
<svg xmlns="http://www.w3.org/2000/svg"
     xmlns:xlink="http://www.w3.org/1999/xlink"
     xmlns:gadfly="http://www.gadflyjl.org/ns"
     version="1.2"
     width="127mm" height="101.6mm" viewBox="0 0 127 101.6"
     stroke="none"
     fill="#000000"
     stroke-width="0.3"
     font-size="3.88"
>
<defs>
  <marker id="arrow" markerWidth="15" markerHeight="7" refX="5" refY="3.5" orient="auto" markerUnits="strokeWidth">
    <path d="M0,0 L15,3.5 L0,7 z" stroke="context-stroke" fill="context-stroke"/>
  </marker>
</defs>
<g class="plotroot xscalable yscalable" id="img-f0504f0a-1">
  <g font-size="3.88" font-family="'PT Sans','Helvetica Neue','Helvetica',sans-serif" fill="#564A55" stroke="#000000" stroke-opacity="0.000" id="img-f0504f0a-2">
    <g transform="translate(70.82,89.99)">
      <g class="primitive">
        <text text-anchor="middle" dy="0.6em">Month(s) since</text>
      </g>
    </g>
  </g>
  <g class="guide xlabels" font-size="2.82" font-family="'PT Sans Caption','Helvetica Neue','Helvetica',sans-serif" fill="#6C606B" id="img-f0504f0a-3">
    <g transform="translate(48.46,83.32)">
      <g class="primitive">
        <text text-anchor="middle" dy="0.6em">10</text>
      </g>
    </g>
    <g transform="translate(78.27,83.32)">
      <g class="primitive">
        <text text-anchor="middle" dy="0.6em">20</text>
      </g>
    </g>
    <g transform="translate(108.08,83.32)">
      <g class="primitive">
        <text text-anchor="middle" dy="0.6em">30</text>
      </g>
    </g>
  </g>
  <g clip-path="url(#img-f0504f0a-4)">
    <g id="img-f0504f0a-5">
      <g pointer-events="visible" stroke-width="0.3" fill="#000000" fill-opacity="0.000" stroke="#000000" stroke-opacity="0.000" class="guide background" id="img-f0504f0a-6">
        <g transform="translate(70.82,43.66)" id="img-f0504f0a-7">
          <path d="M-51.18,-38.66 L51.18,-38.66 51.18,38.66 -51.18,38.66  z" class="primitive"/>
        </g>
      </g>
      <g class="guide ygridlines xfixed" stroke-dasharray="0.5,0.5" stroke-width="0.2" stroke="#D0D0E0" id="img-f0504f0a-8">
        <g transform="translate(70.82,80.32)" id="img-f0504f0a-9">
          <path fill="none" d="M-51.18,0 L51.18,0 " class="primitive"/>
        </g>
        <g transform="translate(70.82,55.88)" id="img-f0504f0a-10">
          <path fill="none" d="M-51.18,0 L51.18,0 " class="primitive"/>
        </g>
        <g transform="translate(70.82,31.44)" id="img-f0504f0a-11">
          <path fill="none" d="M-51.18,0 L51.18,0 " class="primitive"/>
        </g>
        <g transform="translate(70.82,7)" id="img-f0504f0a-12">
          <path fill="none" d="M-51.18,0 L51.18,0 " class="primitive"/>
        </g>
      </g>
      <g class="guide xgridlines yfixed" stroke-dasharray="0.5,0.5" stroke-width="0.2" stroke="#D0D0E0" id="img-f0504f0a-13">
        <g transform="translate(48.46,43.66)" id="img-f0504f0a-14">
          <path fill="none" d="M0,-38.66 L0,38.66 " class="primitive"/>
        </g>
        <g transform="translate(78.27,43.66)" id="img-f0504f0a-15">
          <path fill="none" d="M0,-38.66 L0,38.66 " class="primitive"/>
        </g>
        <g transform="translate(108.08,43.66)" id="img-f0504f0a-16">
          <path fill="none" d="M0,-38.66 L0,38.66 " class="primitive"/>
        </g>
      </g>
      <g class="plotpanel" id="img-f0504f0a-17">
        <metadata>
          <boundingbox value="19.63166666666666mm 5.0mm 102.36833333333334mm 77.315mm"/>
          <unitbox value="0.3290523711899156 110.81838641478552 34.341895257620166 -31.636772829571033"/>
        </metadata>
        <g stroke-width="0.3" fill="#000000" fill-opacity="0.000" class="geometry" id="img-f0504f0a-18">
          <g class="color_RGB{N0f8}(0.0,0.749,1.0)" stroke-dasharray="none" stroke="#00BFFF" id="img-f0504f0a-19">
            <g transform="translate(35.05,28.66)" id="img-f0504f0a-20">
              <path fill="none" d="M-13.41,2.78 L-10.43,15.31 -7.45,44.67 -4.47,9.72 -1.49,-6.7 1.49,-8.75 4.47,-11.55 7.45,-15.82 10.43,-15.82 13.41,-13.83 " class="primitive"/>
            </g>
          </g>
        </g>
        <g stroke-width="0.3" fill="#000000" fill-opacity="0.000" class="geometry" id="img-f0504f0a-21">
          <g class="color_RGB{N0f8}(1.0,0.0,0.0)" stroke-dasharray="none" stroke="#FF0000" id="img-f0504f0a-22">
            <g transform="translate(70.82,48.87)" id="img-f0504f0a-23">
              <path fill="none" d="M-49.18,-17.43 L-46.2,-16.32 -43.22,-14.35 -40.24,-10.23 -37.26,-0.47 -34.28,9.28 -31.3,14.56 -28.32,11.2 -25.34,11.96 -22.36,15.81 -19.38,14.86 -16.39,12.77 -13.41,8.68 -10.43,8.22 -7.45,3.73 -4.47,9.5 -1.49,7.24 1.49,5.42 4.47,4.17 7.45,4.08 10.43,4.09 13.41,-1.51 16.39,-3.2 19.38,-0.85 22.36,-0.77 25.34,-0.99 28.32,-2.29 31.3,-4.14 34.28,-7.12 37.26,-9.72 40.24,-11.24 43.22,-12.97 46.2,-14.8 49.18,-17.16 " class="primitive"/>
            </g>
          </g>
        </g>
      </g>
      <g class="guide colorkey" id="img-f0504f0a-24">
        <g fill="#4C404B" font-size="2.82" font-family="'PT Sans','Helvetica Neue','Helvetica',sans-serif" id="img-f0504f0a-25">
          <g transform="translate(37.57,73.78)" id="img-f0504f0a-26">
            <g class="primitive">
              <text dy="0.35em">2008 Recession</text>
            </g>
          </g>
          <g transform="translate(37.57,77.41)" id="img-f0504f0a-27">
            <g class="primitive">
              <text dy="0.35em">2020 Pandemic (2020-11-01: 106.8)</text>
            </g>
          </g>
        </g>
        <g stroke-width="0.3" id="img-f0504f0a-28">
          <g stroke="#FFFFFF" fill-opacity="1" fill="#00BFFF" id="img-f0504f0a-29">
            <g transform="translate(34.75,77.41)" id="img-f0504f0a-30">
              <circle cx="0" cy="0" r="0.9" class="primitive"/>
            </g>
          </g>
          <g stroke="#FFFFFF" fill-opacity="1" fill="#FF0000" id="img-f0504f0a-31">
            <g transform="translate(34.75,73.78)" id="img-f0504f0a-32">
              <circle cx="0" cy="0" r="0.9" class="primitive"/>
            </g>
          </g>
        </g>
        <g fill="#362A35" font-size="3.88" font-family="'PT Sans','Helvetica Neue','Helvetica',sans-serif" stroke="#000000" stroke-opacity="0.000" id="img-f0504f0a-33">
          <g transform="translate(33.94,70.47)" id="img-f0504f0a-34">
            <g class="primitive">
              <text dy="-0em">Retail sales, excluding food services</text>
            </g>
          </g>
        </g>
      </g>
    </g>
  </g>
  <g class="guide ylabels" font-size="2.82" font-family="'PT Sans Caption','Helvetica Neue','Helvetica',sans-serif" fill="#6C606B" id="img-f0504f0a-35">
    <g transform="translate(18.63,80.32)" id="img-f0504f0a-36">
      <g class="primitive">
        <text text-anchor="end" dy="0.35em">80</text>
      </g>
    </g>
    <g transform="translate(18.63,55.88)" id="img-f0504f0a-37">
      <g class="primitive">
        <text text-anchor="end" dy="0.35em">90</text>
      </g>
    </g>
    <g transform="translate(18.63,31.44)" id="img-f0504f0a-38">
      <g class="primitive">
        <text text-anchor="end" dy="0.35em">100</text>
      </g>
    </g>
    <g transform="translate(18.63,7)" id="img-f0504f0a-39">
      <g class="primitive">
        <text text-anchor="end" dy="0.35em">110</text>
      </g>
    </g>
  </g>
  <g font-size="3.88" font-family="'PT Sans','Helvetica Neue','Helvetica',sans-serif" fill="#564A55" stroke="#000000" stroke-opacity="0.000" id="img-f0504f0a-40">
    <g transform="translate(8.81,41.66)" id="img-f0504f0a-41">
      <g class="primitive">
        <text text-anchor="middle" dy="0.35em" transform="rotate(-90,0, 2)">Index (100: pre-decline peak)</text>
      </g>
    </g>
  </g>
</g>
<defs>
  <clipPath id="img-f0504f0a-4">
    <path d="M19.63,5 L122,5 122,82.32 19.63,82.32 " />
  </clipPath>
</defs>
</svg>
