<?xml version="1.0" encoding="UTF-8"?>
<svg xmlns="http://www.w3.org/2000/svg"
     xmlns:xlink="http://www.w3.org/1999/xlink"
     xmlns:gadfly="http://www.gadflyjl.org/ns"
     version="1.2"
     width="127mm" height="101.6mm" viewBox="0 0 127 101.6"
     stroke="none"
     fill="#000000"
     stroke-width="0.3"
     font-size="3.88"
>
<defs>
  <marker id="arrow" markerWidth="15" markerHeight="7" refX="5" refY="3.5" orient="auto" markerUnits="strokeWidth">
    <path d="M0,0 L15,3.5 L0,7 z" stroke="context-stroke" fill="context-stroke"/>
  </marker>
</defs>
<g class="plotroot xscalable yscalable" id="img-3d134dd7-1">
  <g font-size="3.88" font-family="'PT Sans','Helvetica Neue','Helvetica',sans-serif" fill="#564A55" stroke="#000000" stroke-opacity="0.000" id="img-3d134dd7-2">
    <g transform="translate(69.98,89.99)">
      <g class="primitive">
        <text text-anchor="middle" dy="0.6em">Time</text>
      </g>
    </g>
  </g>
  <g class="guide xlabels" font-size="2.82" font-family="'PT Sans Caption','Helvetica Neue','Helvetica',sans-serif" fill="#6C606B" id="img-3d134dd7-3">
    <g transform="translate(-3.2,83.32)">
      <g class="primitive">
        <text text-anchor="middle" dy="0.6em">2005</text>
      </g>
    </g>
    <g transform="translate(35.28,83.32)">
      <g class="primitive">
        <text text-anchor="middle" dy="0.6em">2010</text>
      </g>
    </g>
    <g transform="translate(73.77,83.32)">
      <g class="primitive">
        <text text-anchor="middle" dy="0.6em">2015</text>
      </g>
    </g>
    <g transform="translate(112.26,83.32)">
      <g class="primitive">
        <text text-anchor="middle" dy="0.6em">2020</text>
      </g>
    </g>
    <g transform="translate(150.77,83.32)">
      <g class="primitive">
        <text text-anchor="middle" dy="0.6em">2025</text>
      </g>
    </g>
  </g>
  <g clip-path="url(#img-3d134dd7-4)">
    <g id="img-3d134dd7-5">
      <g pointer-events="visible" stroke-width="0.3" fill="#000000" fill-opacity="0.000" stroke="#000000" stroke-opacity="0.000" class="guide background" id="img-3d134dd7-6">
        <g transform="translate(69.98,43.66)" id="img-3d134dd7-7">
          <path d="M-52.02,-38.66 L52.02,-38.66 52.02,38.66 -52.02,38.66  z" class="primitive"/>
        </g>
      </g>
      <g class="guide ygridlines xfixed" stroke-dasharray="0.5,0.5" stroke-width="0.2" stroke="#D0D0E0" id="img-3d134dd7-8">
        <g transform="translate(69.98,80.32)" id="img-3d134dd7-9">
          <path fill="none" d="M-52.02,0 L52.02,0 " class="primitive"/>
        </g>
        <g transform="translate(69.98,65.65)" id="img-3d134dd7-10">
          <path fill="none" d="M-52.02,0 L52.02,0 " class="primitive"/>
        </g>
        <g transform="translate(69.98,50.99)" id="img-3d134dd7-11">
          <path fill="none" d="M-52.02,0 L52.02,0 " class="primitive"/>
        </g>
        <g transform="translate(69.98,36.33)" id="img-3d134dd7-12">
          <path fill="none" d="M-52.02,0 L52.02,0 " class="primitive"/>
        </g>
        <g transform="translate(69.98,21.66)" id="img-3d134dd7-13">
          <path fill="none" d="M-52.02,0 L52.02,0 " class="primitive"/>
        </g>
        <g transform="translate(69.98,7)" id="img-3d134dd7-14">
          <path fill="none" d="M-52.02,0 L52.02,0 " class="primitive"/>
        </g>
      </g>
      <g class="guide xgridlines yfixed" stroke-dasharray="0.5,0.5" stroke-width="0.2" stroke="#D0D0E0" id="img-3d134dd7-15">
        <g transform="translate(-3.2,43.66)" id="img-3d134dd7-16">
          <path fill="none" d="M0,-38.66 L0,38.66 " class="primitive"/>
        </g>
        <g transform="translate(35.28,43.66)" id="img-3d134dd7-17">
          <path fill="none" d="M0,-38.66 L0,38.66 " class="primitive"/>
        </g>
        <g transform="translate(73.77,43.66)" id="img-3d134dd7-18">
          <path fill="none" d="M0,-38.66 L0,38.66 " class="primitive"/>
        </g>
        <g transform="translate(112.26,43.66)" id="img-3d134dd7-19">
          <path fill="none" d="M0,-38.66 L0,38.66 " class="primitive"/>
        </g>
        <g transform="translate(150.77,43.66)" id="img-3d134dd7-20">
          <path fill="none" d="M0,-38.66 L0,38.66 " class="primitive"/>
        </g>
      </g>
      <g class="plotpanel" id="img-3d134dd7-21">
        <metadata>
          <boundingbox value="17.95833333333333mm 5.0mm 104.04166666666667mm 77.315mm"/>
          <unitbox value="2007-10-02 25.681988678987928 4936 days -26.36397735797586"/>
        </metadata>
        <g class="yfixed" id="img-3d134dd7-22">
          <g stroke-dasharray="none" stroke-width="10.5" stroke="#808080" id="img-3d134dd7-23">
            <g transform="translate(25.02,43.66)" id="img-3d134dd7-24">
              <path fill="none" d="M0,-38.66 L0,38.66 " class="primitive"/>
            </g>
          </g>
        </g>
        <g stroke-width="0.3" fill="#000000" fill-opacity="0.000" class="geometry" id="img-3d134dd7-25">
          <g class="color_RGB{N0f8}(0.0,0.749,1.0)" stroke-dasharray="none" stroke="#00BFFF" id="img-3d134dd7-26">
            <g transform="translate(69.27,60.11)" id="img-3d134dd7-27">
              <path fill="none" d="M-49.39,5.99 L-48.74,5.83 -48.13,5.82 -47.48,4.89 -46.84,4.7 -46.19,3.96 -45.56,2.81 -44.9,3.04 -44.25,2.17 -43.62,0.58 -42.97,-1.24 -42.33,-3.34 -41.68,-3.39 -41.03,-5.59 -40.44,-6.62 -39.78,-5.92 -39.15,-6.52 -38.5,-6.26 -37.86,-5.87 -37.21,-6.28 -36.56,-5.74 -35.93,-6.13 -35.27,-6.53 -34.64,-6.48 -33.99,-4.81 -33.33,-6 -32.74,-6.87 -32.09,-6.71 -31.46,-5.74 -30.8,-4.95 -30.17,-4.72 -29.52,-5.6 -28.86,-6.91 -28.23,-5.71 -27.58,-5.82 -26.95,-6 -26.29,-4.64 -25.64,-4.62 -25.05,-5.15 -24.4,-5.17 -23.76,-4.95 -23.11,-4.51 -22.48,-4.08 -21.82,-5.57 -21.17,-6.68 -20.54,-5.18 -19.88,-4.57 -19.25,-3.76 -18.6,-4.15 -17.95,-3.96 -17.33,-2.6 -16.68,-3 -16.05,-3.55 -15.4,-3.47 -14.76,-3.5 -14.11,-3.18 -13.46,-5.23 -12.82,-3.85 -12.17,-3.74 -11.54,-3.09 -10.88,-3.7 -10.23,-3.78 -9.64,-2.44 -8.99,-3.15 -8.35,-3.07 -7.7,-3.56 -7.07,-3.55 -6.42,-2.72 -5.76,-2.57 -5.13,-3.07 -4.48,-2.43 -3.84,-2.75 -3.19,-1.19 -2.54,-1.2 -1.95,-1.6 -1.29,-1.82 -0.66,-1.07 -0.01,-1.56 0.62,-1.5 1.28,-0.84 1.93,-0.38 2.56,-0.4 3.22,-0.03 3.85,0.1 4.5,0.24 5.16,0.66 5.75,0.75 6.4,0.82 7.03,0.75 7.69,1.47 8.32,1.87 8.97,1.38 9.62,2.48 10.26,3.16 10.91,2.11 11.54,2.39 12.2,2.8 12.85,2.7 13.46,2.4 14.11,2.57 14.75,1.2 15.4,3.31 16.03,2.79 16.69,2.65 17.34,2.85 17.97,2.71 18.63,3.4 19.26,3.73 19.91,3.39 20.56,3.82 21.15,4.18 21.81,4.68 22.44,4.79 23.09,4.71 23.73,4.66 24.38,4.88 25.03,5.02 25.67,5.85 26.32,5.99 26.95,5.58 27.6,5.68 28.26,5.26 28.85,5.6 29.5,5.63 30.13,5.68 30.79,6.24 31.42,6.66 32.07,7.43 32.73,6.55 33.36,6.72 34.01,6.26 34.64,6.55 35.3,5.23 35.95,7.59 36.54,6.96 37.19,6.4 37.83,7.37 38.48,7.45 39.11,8.55 39.77,7.35 40.42,7.49 41.05,7.31 41.71,7.63 42.34,8.04 42.99,7.94 43.64,7.54 44.26,3.3 44.91,-11.72 45.54,-10.98 46.2,-6.37 46.83,-4.56 47.48,-2 48.13,1.73 48.77,0.6 49.42,0.67 " class="primitive"/>
            </g>
          </g>
        </g>
        <g class="yfixed" id="img-3d134dd7-28">
          <g stroke-dasharray="1,1" stroke-width="0.3" stroke="#000000" id="img-3d134dd7-29">
            <g transform="translate(113.06,43.66)" id="img-3d134dd7-30">
              <path fill="none" d="M0,-38.66 L0,38.66 " class="primitive"/>
            </g>
          </g>
        </g>
        <g stroke-width="0.3" fill="#000000" fill-opacity="0.000" class="geometry" id="img-3d134dd7-31">
          <g class="color_RGB{N0f8}(1.0,0.0,0.0)" stroke-dasharray="none" stroke="#FF0000" id="img-3d134dd7-32">
            <g transform="translate(69.27,50.18)" id="img-3d134dd7-33">
              <path fill="none" d="M-49.39,7.6 L-48.74,8.15 -48.13,7.2 -47.48,7.74 -46.84,5.52 -46.19,4.99 -45.56,3.93 -44.9,2.46 -44.25,2.3 -43.62,0.6 -42.97,-0.76 -42.33,-2.96 -41.68,-5.22 -41.03,-7.69 -40.44,-9.23 -39.78,-10.49 -39.15,-12.38 -38.5,-12.99 -37.86,-12.68 -37.21,-13.3 -36.56,-13.88 -35.93,-14.88 -35.27,-14.49 -34.64,-14.14 -33.99,-13.98 -33.33,-14.18 -32.74,-14.44 -32.09,-14.8 -31.46,-13.41 -30.8,-12.31 -30.17,-12.42 -29.52,-12.82 -28.86,-12.62 -28.23,-12.43 -27.58,-14.09 -26.95,-11.94 -26.29,-10.96 -25.64,-10.39 -25.05,-10.15 -24.4,-10.79 -23.76,-10.49 -23.11,-10.81 -22.48,-10.22 -21.82,-10.38 -21.17,-10.76 -20.54,-9.73 -19.88,-8.87 -19.25,-8.26 -18.6,-7.39 -17.95,-7.44 -17.33,-7.14 -16.68,-6.95 -16.05,-6.99 -15.4,-7.08 -14.76,-6.98 -14.11,-6.43 -13.46,-5.39 -12.82,-5.42 -12.17,-5.07 -11.54,-5.93 -10.88,-6.43 -10.23,-4.91 -9.64,-4.14 -8.99,-4.35 -8.35,-4.04 -7.7,-4.32 -7.07,-3.1 -6.42,-2.94 -5.76,-2.91 -5.13,-2.52 -4.48,-1.49 -3.84,-0.37 -3.19,0.22 -2.54,-0.21 -1.95,-0.3 -1.29,1.69 -0.66,1.23 -0.01,2.4 0.62,1.96 1.28,1.99 1.93,2.98 2.56,3.77 3.22,3.48 3.85,4.58 4.5,4.08 5.16,4.92 5.75,5.17 6.4,5.07 7.03,4.23 7.69,5.95 8.32,6.19 8.97,6.7 9.62,6.95 10.26,6.91 10.91,6.68 11.54,6.95 12.2,7.5 12.85,7.42 13.46,6.84 14.11,6.75 14.75,7.65 15.4,7.31 16.03,7.68 16.69,7.24 17.34,6.78 17.97,7.19 18.63,8.18 19.26,8.16 19.91,8.09 20.56,8.44 21.15,9.35 21.81,9.36 22.44,9.44 23.09,9.81 23.73,10 24.38,9.33 25.03,10.08 25.67,10.79 26.32,10.5 26.95,10.9 27.6,10.84 28.26,10.66 28.85,11.1 29.5,11.32 30.13,11.93 30.79,11.02 31.42,12.02 32.07,12.05 32.73,12.41 33.36,12.18 34.01,12.44 34.64,11.7 35.3,11.03 35.95,12.01 36.54,11.97 37.19,12.98 37.83,12.73 38.48,12.59 39.11,12.46 39.77,12.55 40.42,13.27 41.05,12.96 41.71,13.1 42.34,13.27 42.99,12.86 43.64,13.17 44.26,9.2 44.91,-37.54 45.54,-31.4 46.2,-21.91 46.83,-17.77 47.48,-9.6 48.13,-6.75 48.77,-2.3 49.42,-1.34 " class="primitive"/>
            </g>
          </g>
        </g>
      </g>
      <g class="guide colorkey" id="img-3d134dd7-34">
        <g fill="#4C404B" font-size="2.82" font-family="'PT Sans','Helvetica Neue','Helvetica',sans-serif" id="img-3d134dd7-35">
          <g transform="translate(36.11,73.78)" id="img-3d134dd7-36">
            <g class="primitive">
              <text dy="0.35em">Unemployment level (2020-11-01: 10.7)</text>
            </g>
          </g>
          <g transform="translate(36.11,77.41)" id="img-3d134dd7-37">
            <g class="primitive">
              <text dy="0.35em">Employment: Part-time, economic reasons (2020-11-01: 6.7)</text>
            </g>
          </g>
        </g>
        <g stroke-width="0.3" id="img-3d134dd7-38">
          <g stroke="#FFFFFF" fill-opacity="1" fill="#00BFFF" id="img-3d134dd7-39">
            <g transform="translate(33.3,77.41)" id="img-3d134dd7-40">
              <circle cx="0" cy="0" r="0.9" class="primitive"/>
            </g>
          </g>
          <g stroke="#FFFFFF" fill-opacity="1" fill="#FF0000" id="img-3d134dd7-41">
            <g transform="translate(33.3,73.78)" id="img-3d134dd7-42">
              <circle cx="0" cy="0" r="0.9" class="primitive"/>
            </g>
          </g>
        </g>
        <g fill="#362A35" font-size="3.88" font-family="'PT Sans','Helvetica Neue','Helvetica',sans-serif" stroke="#000000" stroke-opacity="0.000" id="img-3d134dd7-43">
          <g transform="translate(32.48,70.47)" id="img-3d134dd7-44">
            <g class="primitive">
              <text dy="-0em">Labor market</text>
            </g>
          </g>
        </g>
      </g>
    </g>
  </g>
  <g class="guide ylabels" font-size="2.82" font-family="'PT Sans Caption','Helvetica Neue','Helvetica',sans-serif" fill="#6C606B" id="img-3d134dd7-45">
    <g transform="translate(16.96,80.32)" id="img-3d134dd7-46">
      <g class="primitive">
        <text text-anchor="end" dy="0.35em">0</text>
      </g>
    </g>
    <g transform="translate(16.96,65.65)" id="img-3d134dd7-47">
      <g class="primitive">
        <text text-anchor="end" dy="0.35em">5</text>
      </g>
    </g>
    <g transform="translate(16.96,50.99)" id="img-3d134dd7-48">
      <g class="primitive">
        <text text-anchor="end" dy="0.35em">10</text>
      </g>
    </g>
    <g transform="translate(16.96,36.33)" id="img-3d134dd7-49">
      <g class="primitive">
        <text text-anchor="end" dy="0.35em">15</text>
      </g>
    </g>
    <g transform="translate(16.96,21.66)" id="img-3d134dd7-50">
      <g class="primitive">
        <text text-anchor="end" dy="0.35em">20</text>
      </g>
    </g>
    <g transform="translate(16.96,7)" id="img-3d134dd7-51">
      <g class="primitive">
        <text text-anchor="end" dy="0.35em">25</text>
      </g>
    </g>
  </g>
  <g font-size="3.88" font-family="'PT Sans','Helvetica Neue','Helvetica',sans-serif" fill="#564A55" stroke="#000000" stroke-opacity="0.000" id="img-3d134dd7-52">
    <g transform="translate(8.81,41.66)" id="img-3d134dd7-53">
      <g class="primitive">
        <text text-anchor="middle" dy="0.35em" transform="rotate(-90,0, 2)">Millions of Persons</text>
      </g>
    </g>
  </g>
</g>
<defs>
  <clipPath id="img-3d134dd7-4">
    <path d="M17.96,5 L122,5 122,82.32 17.96,82.32 " />
  </clipPath>
</defs>
</svg>
